<svg role="img" focusable="false" xmlns="http://www.w3.org/2000/svg" xmlns:xlink="http://www.w3.org/1999/xlink" version="1.1" xml:space="preserve" aria-hidden="true">
<svg viewBox="0 0 2420.27 677.04">
<style type="text/css">
     .st0{fill:#4A4F55;}
  </style>
<path class="st0" d="M618.42,0H3.67S-56.57,558.41,311.05,677C678.66,558.41,618.42,0,618.42,0Zm-572,45.59H575.7a1102.1,1102.1,0,0,1-3.38,137.47L70,311.42c-1.88-8-3.68-16.06-5.35-24.3C44.81,189.41,44.46,96.64,46.43,45.59Zm429.8,450.32C434,559.17,378.51,603.82,311,628.81c-55.86-20.69-103.5-54.9-142.19-101.94L567,230.42c-2.43,17.86-5.44,36.16-9.14,54.68C541.12,368.88,513.65,439.81,476.23,495.91Zm498.2.91-55,135.55H906L851.23,496.82V632.37H819.82v-179h44.29l48.58,120.51,48.85-120.51h44.29v179H974.42V496.82Zm155.46-43.47c51.89,0,88.48,37.88,88.48,89.51s-36.59,89.51-88.48,89.51-88.48-37.88-88.48-89.51S1078,453.35,1129.89,453.35Zm0,27c-35,0-57.34,26.73-57.34,62.54,0,35.54,22.31,62.54,57.34,62.54,34.77,0,57.34-27,57.34-62.54C1187.24,507.06,1164.66,480.32,1129.89,480.32Zm158.86.66h-54.21V453.35h139.84V481h-54.21V632.37h-31.41V481Zm193.38-27.63c51.89,0,88.48,37.88,88.48,89.51s-36.59,89.51-88.48,89.51-88.48-37.88-88.48-89.51S1430.23,453.35,1482.13,453.35Zm0,27c-35,0-57.34,26.73-57.34,62.54,0,35.54,22.31,62.54,57.34,62.54,34.77,0,57.34-27,57.34-62.54C1539.47,507.06,1516.89,480.32,1482.13,480.32Zm185.65,85.21h-31.13v66.84h-31.41v-179h78.64c35.43,0,58.52,23.08,58.52,56.09,0,31.94-20.93,49.12-42.41,52.61l43.75,70.32h-36.23ZM1679.6,481h-42.95V537.9h42.95c17.71,0,30.59-11.28,30.59-28.46S1697.31,481,1679.6,481Zm109.31,100.46a74.71,74.71,0,0,0,54.82,23.92c25,0,34.82-12.22,34.82-23.66,0-15.59-18.45-20.26-39.49-25.71-28.33-7-61.59-15.33-61.59-52,0-28.59,25.2-50.67,63.15-50.67,27,0,48.85,8.56,65,24.16l-17.41,22.6c-13.52-13.49-32-19.74-50.15-19.74-17.94,0-29.37,8.59-29.37,21.58,0,13.49,17.67,17.93,38.2,23.12,28.58,7.27,62.62,16.11,62.62,53.78,0,28.85-20.26,53.52-67,53.52-32,0-55.09-11.16-70.41-27.53Zm-888.42-175L758.73,45.59h72L940,337.76,1049.27,45.59h72L979.48,406.47Zm260.24,0V45.59H1408v55.73H1224v93.6H1404.2v55.73H1224v100.1h184v55.73H1160.73Zm509.7,0-80.07-134.72H1527.6V406.47h-63.3V45.59h158.53c71.42,0,118,46.53,118,113.08,0,64.38-42.2,99-85.49,106.05l88.19,141.76h-73Zm-56.27-305.16h-86.57V216h86.57c35.71,0,61.68-22.72,61.68-57.35S1649.87,101.31,1614.16,101.31Zm270.53,305.16V101.31H1775.4V45.58h281.89v55.73H1948V406.46h-63.31ZM2113.6,45.59h62.72V258.18c0,56.34,31.36,93,90.88,93,59,0,90.35-36.67,90.35-93V45.59h62.72V259.78c0,88.23-50.49,146.69-153.07,146.69-103.11,0-153.6-59-153.6-146.16V45.59Z" />
</svg>	
</svg>