<svg role="img" focusable="false" xmlns="http://www.w3.org/2000/svg" xmlns:xlink="http://www.w3.org/1999/xlink" version="1.1" xml:space="preserve" aria-hidden="true">
<svg viewBox="0 0 11.67 15.914">
<defs>
<clipPath id="clip-path">
<rect width="11.67" height="15.914" />
</clipPath>
</defs>
<g clip-path="url(#clip-path)">
<path d="M6.483,15.914h-1.3V13.22a5.812,5.812,0,0,1-3.682-1.944A6.012,6.012,0,0,1,0,7.294H1.3a4.666,4.666,0,0,0,1.331,3.281,4.457,4.457,0,0,0,3.207,1.361,4.6,4.6,0,0,0,4.539-4.642h1.3a6.011,6.011,0,0,1-1.505,3.982A5.811,5.811,0,0,1,6.483,13.22v2.693ZM5.835,9.946A2.626,2.626,0,0,1,3.242,7.294V2.653A2.626,2.626,0,0,1,5.835,0,2.627,2.627,0,0,1,8.429,2.653V7.294A2.627,2.627,0,0,1,5.835,9.946Z" transform="translate(0 0)" />
</g>
</svg>	
</svg>